<svg width="34" height="22" viewBox="0 0 34 22" fill="none" xmlns="http://www.w3.org/2000/svg">
<path d="M33.2344 9.75572L33.2329 9.75406L24.0479 0.613432C23.3598 -0.071324 22.2469 -0.0687758 21.562 0.619408C20.8771 1.3075 20.8797 2.42046 21.5678 3.10531L28.125 9.24218H1.875C0.90416 9.24218 0 10.0292 0 11C0 11.9708 0.90416 12.7578 1.875 12.7578H27.7345L21.5679 18.8947C20.8798 19.5795 20.8772 20.6925 21.562 21.3806C22.247 22.0688 23.36 22.0712 24.048 21.3866L33.233 12.2459L33.2345 12.2443C33.923 11.5571 33.9208 10.4406 33.2344 9.75572Z" fill="#233B55"/>
</svg>
