<svg width="36" height="29" viewBox="0 0 36 29" fill="none" xmlns="http://www.w3.org/2000/svg">
<path d="M30.796 28.4737C31.1311 28.4737 31.4525 28.3405 31.6895 28.1036C31.9265 27.8666 32.0596 27.5452 32.0596 27.21V23.2801C33.0831 23.0056 33.9875 22.4012 34.6325 21.5604C35.2776 20.7196 35.6272 19.6895 35.6272 18.6299C35.6272 17.5702 35.2776 16.5401 34.6325 15.6993C33.9875 14.8586 33.0831 14.2541 32.0596 13.9796V1.48215C32.0596 1.14701 31.9265 0.825599 31.6895 0.588619C31.4525 0.351639 31.1311 0.218506 30.796 0.218506C30.4608 0.218506 30.1394 0.351639 29.9024 0.588619C29.6654 0.825599 29.5323 1.14701 29.5323 1.48215V13.9923C28.5088 14.2667 27.6044 14.8712 26.9594 15.712C26.3143 16.5527 25.9647 17.5828 25.9647 18.6425C25.9647 19.7022 26.3143 20.7323 26.9594 21.573C27.6044 22.4138 28.5088 23.0183 29.5323 23.2927V27.2227C29.5356 27.5556 29.6702 27.8738 29.9069 28.108C30.1435 28.3423 30.463 28.4737 30.796 28.4737ZM28.4835 18.6299C28.4835 18.1725 28.6191 17.7254 28.8732 17.3451C29.1273 16.9648 29.4885 16.6684 29.911 16.4934C30.3336 16.3184 30.7985 16.2726 31.2471 16.3618C31.6957 16.451 32.1077 16.6713 32.4311 16.9947C32.7545 17.3181 32.9748 17.7301 33.064 18.1787C33.1532 18.6273 33.1074 19.0923 32.9324 19.5148C32.7574 19.9374 32.461 20.2985 32.0807 20.5526C31.7004 20.8067 31.2533 20.9423 30.796 20.9423C30.1826 20.9423 29.5945 20.6987 29.1608 20.265C28.7271 19.8314 28.4835 19.2432 28.4835 18.6299Z" fill="white"/>
<path d="M17.9319 28.4737C18.2671 28.4737 18.5885 28.3405 18.8255 28.1036C19.0625 27.8666 19.1956 27.5452 19.1956 27.21V9.69587C20.3281 9.38955 21.3108 8.68231 21.9608 7.70569C22.6109 6.72907 22.8841 5.54957 22.7296 4.3866C22.5751 3.22363 22.0034 2.15638 21.1209 1.38336C20.2384 0.610347 19.1051 0.184204 17.9319 0.184204C16.7588 0.184204 15.6255 0.610347 14.743 1.38336C13.8605 2.15638 13.2888 3.22363 13.1343 4.3866C12.9798 5.54957 13.253 6.72907 13.9031 7.70569C14.5531 8.68231 15.5358 9.38955 16.6683 9.69587V27.21C16.6683 27.5452 16.8014 27.8666 17.0384 28.1036C17.2754 28.3405 17.5968 28.4737 17.9319 28.4737ZM15.6195 5.05828C15.617 4.60039 15.7505 4.15206 16.003 3.77011C16.2556 3.38817 16.6159 3.08981 17.0382 2.91284C17.4605 2.73588 17.9259 2.68828 18.3753 2.77607C18.8247 2.86387 19.2379 3.08311 19.5626 3.406C19.8873 3.7289 20.1088 4.14092 20.199 4.58984C20.2893 5.03875 20.2442 5.50436 20.0696 5.92765C19.8949 6.35093 19.5985 6.71284 19.218 6.9675C18.8374 7.22216 18.3898 7.35811 17.9319 7.35812C17.3208 7.35813 16.7345 7.11623 16.3012 6.68529C15.8679 6.25434 15.6228 5.66939 15.6195 5.05828Z" fill="white"/>
<path d="M3.8044 18.9963V27.21C3.8044 27.5452 3.93753 27.8666 4.17451 28.1036C4.41149 28.3405 4.7329 28.4737 5.06804 28.4737C5.40318 28.4737 5.7246 28.3405 5.96158 28.1036C6.19856 27.8666 6.33169 27.5452 6.33169 27.21V18.9963C7.35522 18.7219 8.25961 18.1174 8.90463 17.2766C9.54965 16.4359 9.89927 15.4058 9.89927 14.3461C9.89927 13.2864 9.54965 12.2563 8.90463 11.4156C8.25961 10.5748 7.35522 9.97032 6.33169 9.69587V1.48215C6.33169 1.14701 6.19856 0.825599 5.96158 0.588619C5.7246 0.351639 5.40318 0.218506 5.06804 0.218506C4.7329 0.218506 4.41149 0.351639 4.17451 0.588619C3.93753 0.825599 3.8044 1.14701 3.8044 1.48215V9.69587C2.78086 9.97032 1.87647 10.5748 1.23145 11.4156C0.586432 12.2563 0.236816 13.2864 0.236816 14.3461C0.236816 15.4058 0.586432 16.4359 1.23145 17.2766C1.87647 18.1174 2.78086 18.7219 3.8044 18.9963ZM5.06804 12.0336C5.52594 12.0311 5.97427 12.1646 6.35621 12.4172C6.73815 12.6698 7.03652 13.03 7.21348 13.4524C7.39045 13.8747 7.43805 14.34 7.35025 14.7894C7.26246 15.2388 7.04322 15.6521 6.72032 15.9767C6.39742 16.3014 5.98541 16.5229 5.53649 16.6132C5.08757 16.7034 4.62196 16.6584 4.19868 16.4837C3.77539 16.3091 3.41348 16.0127 3.15882 15.6321C2.90416 15.2516 2.76821 14.804 2.7682 14.3461C2.76819 13.735 3.01009 13.1487 3.44104 12.7154C3.87198 12.2821 4.45693 12.037 5.06804 12.0336Z" fill="white"/>
</svg>
